<svg id="visual" viewBox="0 0 900 600" width="900" height="600" xmlns="http://www.w3.org/2000/svg" xmlns:xlink="http://www.w3.org/1999/xlink" version="1.1"><rect x="0" y="0" width="900" height="600" fill="#0f0f19"></rect><path d="M0 418L150 426L300 380L450 435L600 408L750 435L900 446L900 601L750 601L600 601L450 601L300 601L150 601L0 601Z" fill="#181825"></path><path d="M0 451L150 441L300 413L450 469L600 459L750 454L900 412L900 601L750 601L600 601L450 601L300 601L150 601L0 601Z" fill="#191927"></path><path d="M0 474L150 481L300 460L450 468L600 506L750 440L900 453L900 601L750 601L600 601L450 601L300 601L150 601L0 601Z" fill="#1b1b29"></path><path d="M0 509L150 534L300 503L450 490L600 488L750 523L900 518L900 601L750 601L600 601L450 601L300 601L150 601L0 601Z" fill="#1c1c2b"></path><path d="M0 541L150 537L300 563L450 549L600 551L750 570L900 573L900 601L750 601L600 601L450 601L300 601L150 601L0 601Z" fill="#1e1e2e"></path></svg>